PathFileType  4	(X/Y/Z) C:\Users\antoi\Documents\MyRepositories\mobilecap\ResultsAnalysis
DataRate	CameraRate	NumFrames	NumMarkers	Units	OrigDataRate	OrigDataStartFrame	OrigNumFrames
100.0	100.0	7	51	mm	100.0	168	1336
Frame#	Time	r_knee			r_shank_antsup			r_ankle			r_calc			r_5meta			r_toe			L_knee			L_shank_antsup			L_ankle			L_calc			L_5meta			L_toe			r_sh2			r_sh3			r_sh4			L_sh2			L_sh3			r_thigh1			r_thigh2			r_thigh3			r_thigh4			r_thigh5			L_thigh1			L_thigh2			L_thigh3			L_thigh4			r.ASIS			r.PSIS			L.ASIS			L.PSIS			C7			R_Shoulder			L_Shoulder			R_Sternum			L_Sternum			R_humerus			R_elbow_med			R_elbow_lat			R_forearm			R_wrist_radius			R_wrist_ulna			L_humerus			L_elbow_med			L_elbow_lat			L_forearm			L_wrist_radius			L_wrist_ulna			R_HJC			L_HJC			R_HJC_reg			L_HJC_reg			
		X1	Y1	Z1	X2	Y2	Z2	X3	Y3	Z3	X4	Y4	Z4	X5	Y5	Z5	X6	Y6	Z6	X7	Y7	Z7	X8	Y8	Z8	X9	Y9	Z9	X10	Y10	Z10	X11	Y11	Z11	X12	Y12	Z12	X13	Y13	Z13	X14	Y14	Z14	X15	Y15	Z15	X16	Y16	Z16	X17	Y17	Z17	X18	Y18	Z18	X19	Y19	Z19	X20	Y20	Z20	X21	Y21	Z21	X22	Y22	Z22	X23	Y23	Z23	X24	Y24	Z24	X25	Y25	Z25	X26	Y26	Z26	X27	Y27	Z27	X28	Y28	Z28	X29	Y29	Z29	X30	Y30	Z30	X31	Y31	Z31	X32	Y32	Z32	X33	Y33	Z33	X34	Y34	Z34	X35	Y35	Z35	X36	Y36	Z36	X37	Y37	Z37	X38	Y38	Z38	X39	Y39	Z39	X40	Y40	Z40	X41	Y41	Z41	X42	Y42	Z42	X43	Y43	Z43	X44	Y44	Z44	X45	Y45	Z45	X46	Y46	Z46	X47	Y47	Z47	X48	Y48	Z48	X49	Y49	Z49	X50	Y50	Z50	X51	Y51	Z51	

168	1.67000000	-237.54127	530.33719	-443.34450	-218.97377	450.67635	-422.89905	-333.17568	104.95362	-437.22013	-392.27084	52.90393	-485.45016	-198.56371	39.31750	-385.48728	-158.47632	63.13475	-442.39585	-236.96919	526.08690	-768.37464	-221.66924	408.21233	-783.19559	-344.55147	99.69054	-768.26825	-412.60272	51.54996	-726.98171	-198.36366	33.36392	-813.03620	-169.55122	59.70932	-749.84066	-239.93623	339.44163	-413.80419	-291.63675	464.43607	-411.81837	-320.71053	351.88199	-407.49936	-305.85531	436.29081	-799.04176	-329.88977	317.53076	-800.25838	-293.20871	848.31217	-428.70243	-240.19668	749.43075	-435.70183	-275.56017	700.76490	-407.90296	-391.40969	789.02541	-422.00193	-328.31840	689.56070	-419.13334	-284.04343	850.56815	-776.77562	-225.39109	721.67486	-774.52958	-391.01047	797.14611	-796.53160	-323.62110	674.95502	-793.21898	-318.39699	1003.04582	-476.98144	-498.40669	1070.77681	-557.42680	-313.33236	999.36659	-733.34257	-496.46475	1069.88102	-664.19272	-395.15928	1566.58184	-627.94766	-333.48310	1526.73607	-443.66586	-314.63376	1524.57938	-783.21138	-253.52513	1488.79782	-582.49640	-248.10139	1482.58099	-633.52104	-372.00841	1262.76678	-343.31609	-429.72954	1174.17080	-407.22829	-401.41769	1178.15497	-327.97647	-325.47732	1035.55026	-325.79865	-277.14437	931.08186	-343.93791	-317.49814	927.18471	-324.62482	-356.13493	1266.23742	-871.33245	-425.89964	1186.89641	-816.37966	-394.51023	1183.29661	-878.97429	-332.17278	1020.47787	-872.42678	-292.23001	932.47824	-850.99731	-328.02552	921.66778	-863.58953	-413.30859	938.28762	-484.11056	-405.89927	934.98860	-714.33603	-401.41953	939.73151	-514.25949	-398.34212	938.31178	-683.47418	
169	1.68000000	-233.09148	528.90301	-444.38335	-215.07232	449.32002	-423.49912	-332.92092	104.83665	-437.71617	-392.19170	52.89124	-485.41372	-198.58499	39.25431	-385.64079	-158.45074	63.14532	-442.38343	-233.06139	523.94368	-767.69921	-218.54543	406.83254	-783.22452	-344.38297	99.77189	-768.17545	-412.57904	51.67866	-726.90815	-198.36689	33.42109	-813.01257	-169.52454	59.74776	-749.76649	-237.11818	338.27969	-414.49189	-286.98962	463.94642	-412.33614	-317.93999	351.53829	-408.26507	-302.41673	435.66465	-798.66486	-327.75611	317.09679	-799.63634	-294.85066	844.96963	-428.02778	-240.07328	747.36709	-435.13584	-274.64566	697.78276	-407.97880	-392.08826	783.66858	-422.37469	-327.07811	685.47213	-419.61353	-286.30450	847.42589	-778.17311	-225.25559	719.56466	-775.53933	-392.35340	791.93764	-796.18301	-322.63301	671.11366	-792.99435	-321.56081	997.51350	-476.57211	-501.28923	1066.28333	-557.15536	-316.33804	993.87447	-733.08954	-499.27542	1065.40995	-664.07021	-393.21418	1561.04923	-627.78067	-331.89642	1520.78359	-443.81782	-312.63356	1518.20251	-782.92285	-252.20656	1482.03517	-582.06987	-246.84377	1475.77046	-633.16814	-371.43368	1257.47601	-342.19164	-430.17964	1168.82168	-405.32172	-401.30337	1173.04682	-326.26195	-324.37655	1030.74626	-324.84646	-275.44889	926.72871	-343.35771	-315.47679	922.53483	-323.71466	-355.94321	1260.74634	-872.16894	-426.49801	1181.04727	-817.67540	-394.87673	1177.83020	-880.29142	-330.78759	1015.66162	-873.40101	-289.73584	928.26898	-851.64537	-325.29385	916.94625	-864.47666	-416.88961	933.29703	-483.87651	-409.32695	930.01568	-714.09682	-404.94527	934.61663	-513.95582	-401.75625	933.23375	-683.27387	
170	1.69000000	-228.98911	527.47363	-445.29821	-211.24690	447.88164	-424.25760	-332.67237	104.82226	-438.05992	-392.11943	52.87695	-485.41121	-198.58922	39.16447	-385.77474	-158.41389	63.15715	-442.38613	-230.35473	521.25857	-766.28270	-215.53587	405.45310	-783.17524	-344.24615	99.87408	-768.17146	-412.59284	51.88153	-726.86934	-198.38840	33.50523	-812.96683	-169.52684	59.76732	-749.66964	-234.37838	337.15789	-415.28220	-283.18375	463.42996	-413.02867	-315.09765	351.17406	-409.00407	-299.19575	434.92546	-798.27093	-325.75427	316.76278	-799.27367	-296.64030	841.35664	-427.54395	-240.34948	745.19339	-434.63879	-274.06634	694.69322	-407.89843	-392.90023	778.09698	-423.15281	-326.07919	681.30306	-419.93846	-288.58515	843.87727	-779.04056	-225.32055	717.41887	-776.03040	-393.81560	786.68447	-796.03900	-321.70089	667.18998	-792.79306	-324.70948	991.56845	-476.16981	-504.23391	1061.47336	-556.98657	-319.69972	988.13491	-732.59898	-502.14481	1060.72836	-663.91943	-391.20629	1555.28078	-627.60209	-330.24606	1514.65338	-443.64758	-310.70442	1511.54978	-782.53324	-250.86257	1474.93274	-581.62589	-245.54388	1468.66551	-632.80326	-371.07683	1251.93970	-341.28856	-430.33716	1163.02989	-403.59023	-401.38591	1167.64435	-324.53969	-323.33992	1025.79821	-323.91341	-273.75339	922.14679	-342.87124	-313.52688	917.73872	-322.86260	-355.77961	1255.00956	-873.01978	-427.02708	1174.99010	-818.90060	-395.25621	1172.22370	-881.87909	-329.30566	1010.55959	-874.39402	-287.25776	923.88404	-852.21782	-322.40632	912.04473	-865.41473	-420.61154	927.97842	-483.63143	-412.94522	924.78026	-713.84957	-408.59655	929.14340	-513.68372	-405.29009	927.96351	-682.93790	
171	1.70000000	-225.13839	525.92204	-446.38057	-207.61160	446.37655	-425.12784	-332.44139	104.93106	-438.23983	-392.06500	52.86993	-485.48860	-198.59612	39.12712	-385.91536	-158.37940	63.19599	-442.46034	-230.46552	517.69986	-763.08562	-212.62816	403.98070	-783.01297	-344.14830	99.94210	-768.11900	-412.61115	52.05217	-726.72978	-198.42840	33.59913	-812.86587	-169.54375	59.78169	-749.56984	-231.90116	336.04489	-416.01022	-279.68896	462.90044	-413.70774	-312.31251	350.87014	-409.64368	-296.23724	434.23698	-797.98689	-323.62263	316.73852	-799.32469	-298.54827	837.83596	-427.31405	-241.08061	742.86052	-434.16512	-273.83107	691.68263	-407.51906	-394.00748	772.65190	-423.72412	-325.35337	677.01424	-420.41171	-291.02173	840.26056	-779.55054	-225.46598	715.36779	-776.31284	-395.32840	781.49048	-796.10861	-320.86752	663.38216	-792.83608	-327.97660	985.35980	-476.12825	-507.20859	1056.36685	-556.92889	-323.22679	982.24592	-732.19720	-505.06143	1055.87248	-663.83762	-389.15666	1549.34532	-627.38531	-328.49295	1508.18962	-443.38219	-308.83920	1504.65332	-782.07611	-249.47478	1467.59818	-581.25609	-244.25665	1461.33812	-632.34887	-370.94635	1246.26703	-340.26294	-430.50345	1157.00100	-402.07978	-401.66863	1161.89065	-322.90592	-322.34809	1020.74844	-322.92547	-272.05208	917.41624	-342.39095	-311.54946	912.84978	-321.86103	-355.66276	1248.96932	-873.77949	-427.55951	1168.73892	-820.17879	-395.57326	1166.77429	-884.10461	-327.76255	1005.26198	-875.37301	-284.74512	919.27608	-852.71661	-319.42472	907.03544	-866.41725	-424.38821	922.37152	-483.59842	-416.69056	919.38932	-713.81856	-412.29151	923.39349	-513.78095	-408.89725	922.61098	-682.79173	
172	1.71000000	-221.50346	524.27165	-447.67929	-204.25362	444.99216	-425.78846	-332.25689	105.04460	-438.36479	-392.02274	52.84454	-485.62099	-198.62408	39.20415	-386.04303	-158.35706	63.25048	-442.57709	-231.19549	514.33042	-759.70144	-209.85203	402.62129	-783.09591	-344.05437	99.96339	-768.04289	-412.54672	52.23499	-726.39975	-198.47204	33.63421	-812.77058	-169.49312	59.78676	-749.44684	-229.67150	334.95607	-416.50850	-276.24275	462.19029	-414.41146	-309.88810	350.53732	-410.20457	-293.38058	433.68396	-797.90305	-321.50829	316.60883	-799.43699	-300.67961	834.31315	-426.94883	-241.95876	740.39101	-433.58322	-273.93233	688.69025	-407.02150	-395.37058	767.29617	-424.18360	-324.86552	672.54003	-421.46800	-293.96830	837.04194	-780.29265	-225.71340	713.41316	-776.81402	-396.94647	776.24587	-796.12437	-320.20050	659.62306	-792.91168	-331.33856	978.95612	-476.25803	-510.17978	1051.22314	-556.98015	-326.79353	976.17734	-732.12663	-508.05268	1050.88292	-663.72086	-387.10424	1543.20276	-627.02225	-326.63735	1501.37262	-443.20209	-306.99542	1497.56665	-781.75021	-248.10606	1460.11527	-580.98343	-243.01049	1453.80073	-631.95410	-371.06637	1240.18374	-339.36228	-430.86347	1150.87200	-400.69253	-402.09191	1155.93306	-321.31767	-321.42238	1015.54196	-321.76980	-270.27963	912.64832	-341.83945	-309.42517	907.95674	-320.48272	-355.65830	1242.70352	-874.45436	-428.08100	1162.25808	-821.39314	-395.84237	1161.29586	-886.45317	-326.21005	999.89736	-876.36590	-282.09538	914.50024	-853.21325	-316.43512	901.86443	-867.33136	-428.21084	916.61840	-483.72038	-420.59140	913.88312	-713.94604	-416.09085	917.61408	-513.96170	-412.72613	917.07572	-682.83726	
173	1.72000000	-218.25524	522.72309	-448.57069	-201.08626	443.80176	-426.12169	-332.14006	105.04665	-438.56487	-391.99600	52.79588	-485.77132	-198.67717	39.33868	-386.14391	-158.35046	63.27196	-442.66690	-227.31975	513.48534	-760.22884	-207.25253	401.44688	-783.44973	-343.95745	99.92212	-767.98078	-412.47816	52.31306	-726.13188	-198.51229	33.60110	-812.74471	-169.44153	59.79185	-749.38110	-227.57198	333.92840	-416.93765	-273.02691	461.42761	-415.05152	-307.83851	350.10521	-410.76891	-290.48571	433.17377	-798.02892	-319.78063	315.97499	-799.25445	-303.25683	830.43000	-426.05021	-242.48303	738.05275	-432.93639	-274.29659	685.53866	-406.76329	-396.81357	761.85766	-424.92752	-324.55266	668.13999	-422.92651	-296.81036	833.92578	-781.05073	-226.15182	711.44545	-777.55962	-398.72582	770.82562	-795.94347	-319.70302	655.74265	-792.78569	-334.72923	972.45474	-476.32360	-513.16647	1046.10320	-556.99251	-330.41323	969.86189	-732.33636	-511.15475	1045.75775	-663.49466	-385.01006	1536.84739	-626.55992	-324.69971	1494.32811	-442.94481	-305.21830	1490.30649	-781.54890	-246.79384	1452.45748	-580.74015	-241.74799	1446.06666	-631.65075	-371.32632	1233.80690	-338.49063	-431.24733	1144.35381	-399.38412	-402.64899	1149.88955	-319.64791	-320.59882	1010.10775	-320.62718	-268.48269	907.83333	-341.25514	-307.28699	903.09240	-318.88177	-355.75687	1236.38668	-875.14254	-428.63221	1155.57399	-822.39204	-396.20482	1155.31327	-888.10379	-324.67395	994.45572	-877.44155	-279.30813	909.75763	-853.84815	-313.48219	896.48503	-868.12005	-432.05323	910.82178	-483.80332	-424.66985	908.21487	-714.03798	-419.98365	911.82150	-513.97117	-416.79235	911.27350	-682.94156	
174	1.73000000	-215.66080	521.42713	-448.25450	-198.08887	442.63813	-426.33209	-332.04987	104.99454	-438.80887	-391.98704	52.73918	-485.90857	-198.71932	39.43580	-386.22522	-158.35908	63.26413	-442.74604	-219.20244	514.87361	-764.44004	-204.84954	400.25683	-783.73694	-343.89556	99.77730	-767.84860	-412.59957	52.00566	-726.26321	-198.56298	33.53890	-812.75683	-169.58145	59.86492	-749.57207	-225.65552	332.92846	-417.45583	-270.07493	460.84886	-415.52103	-305.86733	349.74269	-411.25574	-287.68970	432.55670	-798.14375	-318.29959	315.25968	-798.95390	-306.16803	826.30096	-424.81973	-242.86023	735.83121	-432.33728	-274.81011	682.40097	-406.60366	-398.29949	756.38572	-425.66577	-324.42381	664.15436	-423.99928	-299.02096	830.32534	-781.47637	-226.77539	709.37696	-778.39380	-400.64286	765.24420	-795.64726	-319.32991	651.75992	-792.67647	-338.21121	965.98404	-476.35620	-516.19475	1040.83074	-556.85060	-333.98984	963.35543	-732.56085	-514.36335	1040.45470	-663.32951	-382.83232	1530.33052	-626.21221	-322.65896	1487.05410	-442.55167	-303.57840	1482.89311	-781.27388	-245.45667	1444.53794	-580.48572	-240.45752	1438.17082	-631.24133	-371.62490	1227.51355	-337.24872	-431.64268	1137.34648	-397.86821	-403.32858	1143.70485	-317.86295	-319.85757	1004.34228	-319.83115	-266.79661	902.84631	-340.68326	-305.24236	897.91500	-317.60228	-355.88508	1230.04080	-875.86920	-429.29199	1148.74944	-823.24851	-396.69502	1148.84310	-889.12051	-323.15858	988.87501	-878.57077	-276.50213	905.15169	-854.74341	-310.52160	891.00694	-868.93358	-435.89367	904.97908	-483.79601	-428.75024	902.36024	-714.03875	-423.81479	905.91118	-513.88245	-420.90560	905.31405	-682.98293	
